<svg width="49" height="49" viewBox="0 0 49 49" fill="none" xmlns="http://www.w3.org/2000/svg">
<path d="M24.4382 0C19.0376 0 14.0472 1.75352 10.0027 4.72046L5.98485 40.4455H5.98438C10.464 45.6035 17.0701 48.8652 24.4382 48.8652C37.9319 48.8652 48.8708 37.9264 48.8708 24.4326C48.8708 10.9388 37.9319 0 24.4382 0Z" fill="#FDC102"/>
<path d="M48.8652 30.4247V18.469L4.86743 14.458L1.1847 16.8978C0.415832 19.2712 0 21.8035 0 24.433C0 25.9848 0.145259 27.5025 0.422035 28.974L46.0975 34.7405L48.8652 30.4247Z" fill="#FFF9EB"/>
<path d="M8.49415 24.433C8.49415 21.0747 9.17215 17.8748 10.3981 14.9622L4.86743 14.458L1.1847 16.8978C0.415832 19.2712 0 21.8035 0 24.433C0 25.9848 0.145259 27.5025 0.422035 28.974L9.15039 30.076C8.72196 28.2644 8.49415 26.3754 8.49415 24.433Z" fill="#FCF1D4"/>
<path d="M48.8605 7.85213V18.4683C48.6353 18.5513 48.411 18.6324 48.1857 18.7088C32.5756 24.0658 16.8194 14.6058 1.17969 16.8973C2.77735 11.965 5.90014 7.71985 9.99261 4.71826C20.8537 5.53714 31.7472 9.60574 42.5853 8.08443C44.2647 7.84945 45.9428 7.47943 47.6192 6.9423C48.2333 6.7456 48.8605 7.20724 48.8605 7.85213Z" fill="#FB8B24"/>
<path d="M48.8653 30.4253V41.0178C48.8653 41.8538 48.3202 42.5889 47.5232 42.8411C44.5852 43.7705 41.6413 44.1891 38.6952 44.2728C27.8055 44.583 16.8709 40.3292 5.97934 40.4466C3.19822 37.2446 1.23693 33.3125 0.421875 28.9747C16.2649 26.2595 32.232 36.0516 48.0502 30.7136C48.3223 30.6219 48.5933 30.5265 48.8653 30.4253Z" fill="#2FAD4F"/>
<path d="M21.9943 19.3141C19.2996 18.6937 16.8632 20.7959 16.875 23.4453C16.8875 26.2251 19.1767 29.0341 21.9943 29.5527C24.6095 30.0339 27.1341 28.1521 27.1136 25.4215C27.0926 22.6006 24.6999 19.9369 21.9943 19.3141ZM26.6268 25.3088C25.7854 25.0681 24.9457 24.8209 24.108 24.5679C23.5859 24.536 23.2248 24.5131 22.8261 24.4873C22.8214 24.4517 22.8146 24.4165 22.8059 24.3815C23.195 24.3566 23.5472 24.3336 24.0566 24.2993C24.9582 23.9882 25.4421 23.8203 26.2833 23.5197C26.3312 23.6457 26.375 23.7734 26.4135 23.9029C26.156 23.9215 25.9919 24.1468 26.0444 24.4204C26.0969 24.694 26.3465 24.9144 26.6096 24.9248C26.6209 25.0546 26.6262 25.1825 26.6268 25.3088ZM25.4278 22.8156C25.5772 23.0675 25.8741 23.1888 26.1027 23.0963C26.1613 23.2196 26.2154 23.3451 26.2651 23.4723C25.348 23.5757 24.8205 23.6295 23.8376 23.7276C23.3822 23.9027 23.0675 24.0234 22.7197 24.1563C22.7022 24.1228 22.6828 24.0903 22.6619 24.0586C22.9821 23.8788 23.272 23.7159 23.6912 23.4795C24.3368 22.8116 24.6836 22.4523 25.2858 21.8252C25.3754 21.9325 25.4618 22.0424 25.5438 22.1556C25.3319 22.275 25.2785 22.5637 25.4278 22.8156ZM24.2885 21.456C24.5115 21.6486 24.8097 21.6538 24.9696 21.4738C25.067 21.5742 25.161 21.6781 25.2518 21.7848C24.5098 22.2452 24.0824 22.5074 23.2867 22.9948C22.9674 23.3505 22.7467 23.5963 22.5028 23.8676C22.4754 23.8412 22.4466 23.8161 22.4167 23.7926C22.6191 23.4854 22.8024 23.2072 23.0675 22.8047C23.3595 21.8806 23.5163 21.3843 23.7886 20.5221C23.9059 20.595 24.0212 20.6717 24.1339 20.7526C24.0002 20.9548 24.0656 21.2633 24.2885 21.456ZM22.8 20.5445C23.0636 20.6496 23.3193 20.5367 23.3857 20.2929C23.5073 20.3556 23.6267 20.4233 23.7443 20.4948C23.2892 21.2451 23.027 21.6767 22.5389 22.4801C22.4044 22.9626 22.3114 23.2962 22.2086 23.6648C22.1754 23.6494 22.1415 23.6358 22.1069 23.6242C22.1609 23.2362 22.2098 22.885 22.2804 22.3769C22.193 21.5199 22.1055 20.6627 22.0182 19.8056C22.1463 19.832 22.2736 19.8632 22.3999 19.8996C22.3625 20.1552 22.5363 20.4394 22.8 20.5445ZM21.1887 20.2222C21.4526 20.2224 21.6263 20.0076 21.5888 19.737C21.7166 19.7512 21.8439 19.7714 21.9705 19.7962C21.8831 20.6183 21.7956 21.4404 21.7083 22.2625C21.7789 22.7988 21.8278 23.1696 21.8818 23.5793C21.8472 23.577 21.8133 23.5771 21.7801 23.5792C21.6773 23.1695 21.5843 22.7986 21.4498 22.2622C21.0479 21.4399 20.6459 20.6176 20.2436 19.7955C20.3608 19.7707 20.4804 19.7505 20.6029 19.7364C20.6688 20.0069 20.9248 20.2219 21.1887 20.2222ZM19.7002 20.5438C19.9237 20.4383 19.9888 20.1542 19.8537 19.899C19.9661 19.8625 20.0815 19.8313 20.1995 19.8048C20.4401 20.6617 20.6807 21.5185 20.9212 22.3755C21.1863 22.8836 21.3696 23.2351 21.572 23.6235C21.5421 23.6349 21.5133 23.6486 21.4859 23.664C21.2421 23.2951 21.0213 22.9611 20.702 22.4784C20.0482 21.8174 19.3929 21.1578 18.7363 20.4995C18.8265 20.427 18.9202 20.3586 19.018 20.2951C19.1777 20.5379 19.4767 20.6494 19.7002 20.5438ZM18.5609 21.4628C18.7099 21.2682 18.6571 20.9598 18.4462 20.7599C18.5277 20.678 18.6135 20.6004 18.7027 20.5268C19.2352 21.2847 19.7669 22.0433 20.2975 22.8025C20.7168 23.2048 21.0066 23.4833 21.3268 23.7912C21.3058 23.8144 21.2866 23.8393 21.2691 23.8657C20.9213 23.5936 20.6065 23.3476 20.1511 22.9927C19.3446 22.5929 18.536 22.197 17.7251 21.8062C17.7748 21.6979 17.829 21.5924 17.8879 21.4905C18.1161 21.6669 18.4119 21.6574 18.5609 21.4628ZM17.9443 22.8351C17.9967 22.5814 17.833 22.2947 17.576 22.1812C17.6144 22.0668 17.6583 21.9557 17.7066 21.8471C18.4508 22.3876 19.1926 22.9315 19.9321 23.4783C20.4415 23.7131 20.7938 23.8761 21.1829 24.0567C21.1741 24.0881 21.1674 24.1206 21.1627 24.1543C20.7638 24.0206 20.4028 23.9 19.8806 23.7266C19.0417 23.6481 18.2018 23.5756 17.3618 23.5102C17.3626 23.3819 17.3683 23.2554 17.3794 23.1309C17.6424 23.2163 17.8918 23.089 17.9443 22.8351ZM17.3619 23.5579C18.2033 23.7986 19.043 24.0459 19.8806 24.2988C20.4028 24.3308 20.7638 24.3537 21.1626 24.3794C21.1673 24.415 21.174 24.4503 21.1828 24.4852C20.7937 24.5101 20.4414 24.5331 19.9321 24.5675C19.0305 24.8785 18.5466 25.0465 17.7054 25.347C17.6575 25.221 17.6137 25.0933 17.5752 24.9638C17.8327 24.9452 17.9968 24.72 17.9444 24.4463C17.8919 24.1727 17.6422 23.9524 17.3791 23.9419C17.3677 23.8122 17.3625 23.6843 17.3619 23.5579ZM18.5609 26.0512C18.4115 25.7991 18.1146 25.6779 17.8859 25.7705C17.8273 25.6472 17.7733 25.5217 17.7236 25.3944C18.6407 25.291 19.1682 25.2374 20.1511 25.1391C20.6065 24.964 20.9212 24.8434 21.269 24.7105C21.2865 24.744 21.3058 24.7766 21.3267 24.8083C21.0065 24.9881 20.7167 25.151 20.2975 25.3873C19.6519 26.0553 19.305 26.4145 18.7029 27.0416C18.6133 26.9345 18.5269 26.8244 18.4448 26.7112C18.6568 26.5917 18.7102 26.303 18.5609 26.0512ZM19.7002 27.4108C19.4772 27.2181 19.179 27.2131 19.0191 27.3931C18.9217 27.2927 18.8276 27.1888 18.7368 27.0821C19.4788 26.6218 19.9062 26.3595 20.7019 25.8721C21.0211 25.5164 21.2419 25.2707 21.4857 24.9993C21.5132 25.0258 21.542 25.0509 21.5719 25.0743C21.3695 25.3816 21.1862 25.6598 20.9211 26.0622C20.6291 26.9863 20.4723 27.4826 20.2 28.3448C20.0827 28.272 19.9674 28.1953 19.8548 28.1143C19.9885 27.9121 19.9231 27.6034 19.7002 27.4108ZM21.1887 28.3223C20.9251 28.2172 20.6694 28.33 20.603 28.5738C20.4814 28.5111 20.3618 28.4435 20.2444 28.3719C20.6995 27.6215 20.9617 27.19 21.4498 26.3865C21.5843 25.904 21.6773 25.5704 21.7801 25.2018C21.8133 25.2172 21.8472 25.2309 21.8818 25.2424C21.8278 25.6305 21.7789 25.9817 21.7083 26.4896C21.7957 27.3468 21.8832 28.2038 21.9705 29.061C21.8424 29.0345 21.7151 29.0033 21.5889 28.967C21.6262 28.7116 21.4524 28.4273 21.1887 28.3223ZM22.8 28.6447C22.5361 28.6445 22.3624 28.8592 22.3999 29.1299C22.272 29.1157 22.1448 29.0954 22.0181 29.0706C22.1055 28.2485 22.193 27.4265 22.2803 26.6043C22.2097 26.0681 22.1608 25.6973 22.1068 25.2876C22.1414 25.2899 22.1753 25.2898 22.2085 25.2877C22.3113 25.6975 22.4043 26.0683 22.5388 26.6046C22.9407 27.427 23.3428 28.2492 23.7451 29.0715C23.6279 29.0963 23.5083 29.1163 23.3859 29.1305C23.3199 28.8599 23.0638 28.6448 22.8 28.6447ZM24.2885 28.3229C24.065 28.4285 23.9999 28.7125 24.1351 28.9677C24.0227 29.0043 23.9072 29.0355 23.7892 29.0619C23.5486 28.2051 23.308 27.3481 23.0675 26.4912C22.8023 25.9831 22.6191 25.6316 22.4166 25.2433C22.4465 25.2318 22.4753 25.2182 22.5027 25.2027C22.7465 25.5718 22.9673 25.9056 23.2865 26.3884C23.9404 27.0494 24.5956 27.709 25.2522 28.3672C25.162 28.4396 25.0683 28.5082 24.9705 28.5715C24.811 28.3288 24.512 28.2174 24.2885 28.3229ZM25.4278 27.4039C25.2788 27.5985 25.3316 27.9069 25.5425 28.1068C25.461 28.1886 25.3752 28.2662 25.286 28.3398C24.7535 27.5818 24.2218 26.8234 23.6912 26.0641C23.2719 25.662 22.9821 25.3834 22.6618 25.0755C22.6828 25.0522 22.7021 25.0274 22.7196 25.0009C23.0674 25.273 23.3822 25.519 23.8376 25.8739C24.644 26.2738 25.4527 26.6696 26.2636 27.0604C26.2138 27.1688 26.1597 27.2742 26.1008 27.3761C25.8724 27.1999 25.5768 27.2093 25.4278 27.4039ZM26.0444 26.0317C25.992 26.2855 26.1557 26.572 26.4127 26.6857C26.3743 26.8 26.3303 26.9113 26.2821 27.0197C25.5379 26.4792 24.7961 25.9353 24.0566 25.3885C23.5471 25.1537 23.1949 24.9907 22.8058 24.8102C22.8146 24.7788 22.8213 24.7462 22.826 24.7125C23.2248 24.8462 23.5859 24.9669 24.108 25.1402C24.947 25.2187 25.7868 25.2913 26.6269 25.3567C26.6261 25.4848 26.6204 25.6114 26.6092 25.7359C26.3462 25.6505 26.0968 25.7777 26.0444 26.0317Z" fill="#659BF2"/>
<path d="M8.84215 28.5551C6.0325 28.4055 3.22523 28.494 0.421875 28.9745C1.23693 33.3122 3.19822 37.2443 5.97934 40.4464C9.0295 40.4135 12.083 40.7235 15.1379 41.18C11.9119 37.7545 9.66494 33.3976 8.84215 28.5551Z" fill="#2B8F49"/>
<path d="M17.2878 5.65739C14.8551 5.24776 12.423 4.90151 9.99261 4.71826C5.90014 7.71985 2.77735 11.965 1.17969 16.8973C4.03439 16.479 6.89291 16.4526 9.75382 16.6558C11.2091 12.3182 13.8486 8.5245 17.2878 5.65739Z" fill="#F97306"/>
</svg>
