<svg width="85" height="85" viewBox="0 0 85 85" fill="none" xmlns="http://www.w3.org/2000/svg">
<g filter="url(#filter0_d_836_805)">
<circle cx="42.5" cy="38.5" r="38.5" fill="white"/>
</g>
<path fill-rule="evenodd" clip-rule="evenodd" d="M64.8625 41.7939C64.8187 42.2318 64.6544 42.649 64.3877 42.9991C64.1211 43.3492 63.7626 43.6186 63.3522 43.7773C63.1292 43.8642 62.9291 44.0012 62.7675 44.1777C62.6058 44.3542 62.4869 44.5654 62.4198 44.7952C62.3527 45.0249 62.3393 45.267 62.3806 45.5027C62.4219 45.7385 62.5168 45.9616 62.658 46.1548C62.8788 46.4569 63.0139 46.813 63.0493 47.1855C63.0847 47.5579 63.0189 47.9331 62.8589 48.2713C62.699 48.6095 62.4507 48.8984 62.1404 49.1074C61.8301 49.3164 61.4691 49.4378 61.0955 49.4588C60.799 49.4757 60.5135 49.5767 60.2723 49.75C60.0311 49.9233 59.8443 50.1617 59.7336 50.4372C59.623 50.7128 59.5931 51.0142 59.6475 51.3062C59.7019 51.5981 59.8383 51.8685 60.0408 52.0858C60.2769 52.3382 60.4515 52.6418 60.551 52.9728C60.6504 53.3039 60.6721 53.6534 60.6143 53.9942C60.5565 54.335 60.4208 54.6578 60.2177 54.9375C60.0147 55.2172 59.7498 55.4463 59.4437 55.6068C53.0729 55.724 46.6169 55.761 40.2509 55.7169C39.8924 55.7223 39.5389 55.6336 39.2255 55.4595C38.2997 54.9691 37.2128 54.5659 36.1607 54.1759C35.7045 54.0071 35.2398 53.8355 34.7905 53.6569V40.264C36.3916 39.5 37.7202 38.2959 38.7489 36.6698L44.8631 27.0088C45.4171 26.1494 45.7054 25.1458 45.6919 24.1234C45.6891 23.6092 45.6939 23.0107 45.7002 22.3779C45.7142 20.6366 45.731 18.67 45.6138 17.0207C46.7954 16.884 47.7827 17.3465 48.6275 18.4334C50.9527 21.4236 51.229 27.6151 49.9077 30.7479C49.7905 31.0259 49.7563 31.3319 49.8092 31.6289C49.8621 31.9259 49.9999 32.2012 50.2058 32.4216C50.4118 32.6421 50.6772 32.7982 50.9699 32.8711C51.2627 32.944 51.5703 32.9306 51.8556 32.8325C57.3201 30.9516 60.9549 30.7639 62.6592 32.2736C62.7416 32.3473 62.8319 32.4116 62.9284 32.4655C63.3253 32.689 63.6647 33.0018 63.9199 33.3792C64.175 33.7566 64.3388 34.1881 64.3984 34.6397C64.4579 35.0913 64.4116 35.5506 64.263 35.9812C64.1145 36.4118 63.8677 36.8019 63.5424 37.1207C63.3755 37.2847 63.2476 37.4841 63.168 37.7041C63.0884 37.9241 63.0592 38.1592 63.0826 38.3919C63.106 38.6247 63.1813 38.8493 63.303 39.0491C63.4247 39.2489 63.5897 39.4189 63.7858 39.5464C64.1555 39.785 64.4517 40.1214 64.6417 40.5182C64.8318 40.915 64.9081 41.3567 64.8623 41.7943L64.8625 41.7939ZM31.666 57.0038H21.125V36.9334H31.666V57.0038ZM67.4968 34.2294C67.375 33.326 67.0521 32.4613 66.5518 31.6992C66.0515 30.9371 65.3867 30.297 64.6062 29.8259C63.3323 28.7578 61.6252 28.1941 59.528 28.1501C57.8404 28.116 55.8822 28.4027 53.5953 29.0222C53.8441 27.4097 53.891 25.7725 53.7349 24.1485C53.4495 21.0495 52.5126 18.3393 51.095 16.5157C49.5309 14.5039 47.3717 13.5918 45.0165 13.9473C44.2729 14.0624 43.5999 14.4531 43.1313 15.0418C42.6627 15.6304 42.4327 16.3739 42.4872 17.1244C42.6059 18.6697 42.5891 20.6251 42.5744 22.3518C42.5688 22.9957 42.564 23.604 42.5668 24.1377C42.5771 24.5637 42.4568 24.9827 42.2222 25.3383L36.1089 34.9993C35.7472 35.5784 35.3031 36.1018 34.7905 36.5529V35.3712C34.7906 35.166 34.7503 34.9628 34.6718 34.7731C34.5933 34.5835 34.4783 34.4112 34.3331 34.2661C34.188 34.121 34.0157 34.0059 33.8261 33.9274C33.6365 33.8489 33.4333 33.8086 33.228 33.8087H19.5625C19.3573 33.8086 19.1541 33.849 18.9644 33.9275C18.7748 34.0059 18.6025 34.121 18.4574 34.2661C18.3123 34.4113 18.1972 34.5835 18.1187 34.7732C18.0402 34.9628 17.9999 35.166 18 35.3712V58.5665C18 58.9809 18.1646 59.3784 18.4576 59.6714C18.7507 59.9644 19.1481 60.129 19.5625 60.129H33.2285C33.6429 60.129 34.0403 59.9644 34.3334 59.6714C34.6264 59.3784 34.791 58.9809 34.791 58.5665V57.0017C34.8859 57.0367 34.9815 57.0722 35.0764 57.1071C36.0761 57.4775 37.0207 57.8278 37.763 58.2203C38.5204 58.6307 39.3685 58.8446 40.2299 58.8426C41.967 58.8545 43.7094 58.8605 45.4572 58.8607C50.2466 58.8607 55.0589 58.8154 59.8225 58.7261C60.0082 58.7228 60.1918 58.6861 60.3646 58.6179C61.6422 58.1161 62.6792 57.1441 63.2625 55.9015C63.8458 54.6589 63.9312 53.2402 63.5011 51.9367C64.5474 51.3568 65.3621 50.4344 65.8083 49.3245C66.2545 48.2145 66.305 46.9848 65.9512 45.8421C66.5179 45.3835 66.9882 44.8171 67.335 44.1758C67.6818 43.5345 67.8982 42.8309 67.9717 42.1055C68.0453 41.3801 67.9745 40.6474 67.7635 39.9495C67.5524 39.2517 67.2053 38.6025 66.7422 38.0394C67.4032 36.8859 67.6682 35.5478 67.4968 34.2294Z" fill="black"/>
<defs>
<filter id="filter0_d_836_805" x="0" y="0" width="85" height="85" filterUnits="userSpaceOnUse" color-interpolation-filters="sRGB">
<feFlood flood-opacity="0" result="BackgroundImageFix"/>
<feColorMatrix in="SourceAlpha" type="matrix" values="0 0 0 0 0 0 0 0 0 0 0 0 0 0 0 0 0 0 127 0" result="hardAlpha"/>
<feOffset dy="4"/>
<feGaussianBlur stdDeviation="2"/>
<feComposite in2="hardAlpha" operator="out"/>
<feColorMatrix type="matrix" values="0 0 0 0 0 0 0 0 0 0 0 0 0 0 0 0 0 0 0.25 0"/>
<feBlend mode="normal" in2="BackgroundImageFix" result="effect1_dropShadow_836_805"/>
<feBlend mode="normal" in="SourceGraphic" in2="effect1_dropShadow_836_805" result="shape"/>
</filter>
</defs>
</svg>
