<svg width="85" height="85" viewBox="0 0 85 85" fill="none" xmlns="http://www.w3.org/2000/svg">
<g filter="url(#filter0_d_836_807)">
<circle cx="42.5" cy="38.5" r="38.5" transform="rotate(180 42.5 38.5)" fill="white"/>
</g>
<path fill-rule="evenodd" clip-rule="evenodd" d="M64.8625 38.4066C64.8187 37.9677 64.6544 37.5495 64.3877 37.1986C64.1211 36.8476 63.7626 36.5776 63.3522 36.4185C63.1292 36.3314 62.9291 36.1941 62.7675 36.0172C62.6058 35.8403 62.4869 35.6285 62.4198 35.3982C62.3527 35.168 62.3393 34.9253 62.3806 34.689C62.4219 34.4527 62.5168 34.2291 62.658 34.0354C62.8788 33.7326 63.0139 33.3757 63.0493 33.0023C63.0847 32.6289 63.0189 32.2529 62.8589 31.9139C62.699 31.5748 62.4507 31.2853 62.1404 31.0758C61.8301 30.8663 61.4691 30.7446 61.0955 30.7235C60.799 30.7066 60.5135 30.6054 60.2723 30.4317C60.0311 30.258 59.8443 30.0191 59.7336 29.7428C59.623 29.4666 59.5931 29.1645 59.6475 28.8718C59.7019 28.5792 59.8383 28.3081 60.0408 28.0904C60.2769 27.8373 60.4515 27.533 60.551 27.2012C60.6504 26.8694 60.6721 26.519 60.6143 26.1775C60.5565 25.8359 60.4208 25.5123 60.2177 25.2319C60.0147 24.9515 59.7498 24.7219 59.4437 24.561C53.0729 24.4436 46.6169 24.4065 40.2509 24.4506C39.8924 24.4452 39.5389 24.5342 39.2255 24.7087C38.2997 25.2003 37.2128 25.6044 36.1607 25.9953C35.7045 26.1645 35.2398 26.3365 34.7905 26.5156V39.9401C36.3916 40.7059 37.7202 41.9129 38.7489 43.5429L44.8631 53.2267C45.4171 54.0881 45.7054 55.0942 45.6919 56.119C45.6891 56.6343 45.6939 57.2343 45.7002 57.8686C45.7142 59.614 45.731 61.5853 45.6138 63.2384C46.7954 63.3755 47.7827 62.9119 48.6275 61.8224C50.9527 58.8252 51.229 52.619 49.9077 49.4788C49.7905 49.2001 49.7563 48.8934 49.8092 48.5957C49.8621 48.298 49.9999 48.022 50.2058 47.801C50.4118 47.5801 50.6772 47.4236 50.9699 47.3506C51.2627 47.2775 51.5703 47.2909 51.8556 47.3893C57.3201 49.2746 60.9549 49.4627 62.6592 47.9495C62.7416 47.8756 62.8319 47.8111 62.9284 47.7571C63.3253 47.5331 63.6647 47.2195 63.9199 46.8412C64.175 46.463 64.3388 46.0304 64.3984 45.5777C64.4579 45.1251 64.4116 44.6647 64.263 44.2331C64.1145 43.8014 63.8677 43.4104 63.5424 43.0908C63.3755 42.9265 63.2476 42.7266 63.168 42.5061C63.0884 42.2856 63.0592 42.05 63.0826 41.8166C63.106 41.5833 63.1813 41.3582 63.303 41.1579C63.4247 40.9576 63.5897 40.7873 63.7858 40.6594C64.1555 40.4202 64.4517 40.0831 64.6417 39.6853C64.8318 39.2876 64.9081 38.8448 64.8623 38.4062L64.8625 38.4066ZM31.666 23.1607H21.125V43.2786H31.666V23.1607ZM67.4968 45.989C67.375 46.8946 67.0521 47.7613 66.5518 48.5252C66.0515 49.2891 65.3867 49.9307 64.6062 50.4029C63.3323 51.4735 61.6252 52.0386 59.528 52.0827C57.8404 52.1169 55.8822 51.8295 53.5953 51.2085C53.8441 52.8248 53.891 54.4659 53.7349 56.0938C53.4495 59.2001 52.5126 61.9167 51.095 63.7447C49.5309 65.7612 47.3717 66.6754 45.0165 66.3191C44.2729 66.2037 43.5999 65.8121 43.1313 65.222C42.6627 64.632 42.4327 63.8868 42.4872 63.1345C42.6059 61.5856 42.5891 59.6255 42.5744 57.8947C42.5688 57.2493 42.564 56.6395 42.5668 56.1046C42.5771 55.6776 42.4568 55.2576 42.2222 54.9011L36.1089 45.2173C35.7472 44.6368 35.3031 44.1122 34.7905 43.6601V44.8445C34.7906 45.0502 34.7503 45.2539 34.6718 45.444C34.5933 45.6341 34.4783 45.8068 34.3331 45.9522C34.188 46.0977 34.0157 46.213 33.8261 46.2917C33.6365 46.3704 33.4333 46.4108 33.228 46.4107H19.5625C19.3573 46.4108 19.1541 46.3703 18.9644 46.2917C18.7748 46.213 18.6025 46.0976 18.4574 45.9522C18.3123 45.8067 18.1972 45.634 18.1187 45.444C18.0402 45.2539 17.9999 45.0502 18 44.8445V21.5943C18 21.1789 18.1646 20.7805 18.4576 20.4868C18.7507 20.1931 19.1481 20.0281 19.5625 20.0281H33.2285C33.6429 20.0281 34.0403 20.1931 34.3334 20.4868C34.6264 20.7805 34.791 21.1789 34.791 21.5943V23.1628C34.8859 23.1278 34.9815 23.0922 35.0764 23.0572C36.0761 22.6859 37.0207 22.3348 37.763 21.9413C38.5204 21.53 39.3685 21.3156 40.2299 21.3176C41.967 21.3057 43.7094 21.2996 45.4572 21.2994C50.2466 21.2994 55.0589 21.3449 59.8225 21.4343C60.0082 21.4377 60.1918 21.4744 60.3646 21.5428C61.6422 22.0458 62.6792 23.0201 63.2625 24.2656C63.8458 25.5111 63.9312 26.9332 63.5011 28.2399C64.5474 28.8211 65.3621 29.7457 65.8083 30.8582C66.2545 31.9708 66.305 33.2034 65.9512 34.3488C66.5179 34.8086 66.9882 35.3762 67.335 36.0191C67.6818 36.6619 67.8982 37.3672 67.9717 38.0943C68.0453 38.8214 67.9745 39.5558 67.7635 40.2554C67.5524 40.9549 67.2053 41.6056 66.7422 42.17C67.4032 43.3262 67.6682 44.6675 67.4968 45.989Z" fill="black"/>
<defs>
<filter id="filter0_d_836_807" x="0" y="0" width="85" height="85" filterUnits="userSpaceOnUse" color-interpolation-filters="sRGB">
<feFlood flood-opacity="0" result="BackgroundImageFix"/>
<feColorMatrix in="SourceAlpha" type="matrix" values="0 0 0 0 0 0 0 0 0 0 0 0 0 0 0 0 0 0 127 0" result="hardAlpha"/>
<feOffset dy="4"/>
<feGaussianBlur stdDeviation="2"/>
<feComposite in2="hardAlpha" operator="out"/>
<feColorMatrix type="matrix" values="0 0 0 0 0 0 0 0 0 0 0 0 0 0 0 0 0 0 0.25 0"/>
<feBlend mode="normal" in2="BackgroundImageFix" result="effect1_dropShadow_836_807"/>
<feBlend mode="normal" in="SourceGraphic" in2="effect1_dropShadow_836_807" result="shape"/>
</filter>
</defs>
</svg>
